<svg xmlns="http://www.w3.org/2000/svg" viewBox="0 0 400 300" width="400" height="300">
  <defs>
    <linearGradient id="bg-ps" x1="0" x2="0" y1="0" y2="1">
      <stop offset="0" stop-color="#FAF7F2"/>
      <stop offset="1" stop-color="#E8E2D6"/>
    </linearGradient>
  </defs>
  <rect width="400" height="300" fill="url(#bg-ps)"/>
  <g stroke="#1A1A1A" stroke-width="1.5" fill="none">
    <rect x="80" y="160" width="60" height="60" rx="3"/>
    <line x1="80" y1="180" x2="140" y2="180"/>
    <line x1="110" y1="160" x2="110" y2="180"/>
    <rect x="170" y="160" width="60" height="60" rx="3"/>
    <line x1="170" y1="180" x2="230" y2="180"/>
    <line x1="200" y1="160" x2="200" y2="180"/>
    <rect x="260" y="160" width="60" height="60" rx="3"/>
    <line x1="260" y1="180" x2="320" y2="180"/>
    <line x1="290" y1="160" x2="290" y2="180"/>
    <rect x="125" y="100" width="60" height="60" rx="3"/>
    <line x1="125" y1="120" x2="185" y2="120"/>
    <line x1="155" y1="100" x2="155" y2="120"/>
    <rect x="215" y="100" width="60" height="60" rx="3"/>
    <line x1="215" y1="120" x2="275" y2="120"/>
    <line x1="245" y1="100" x2="245" y2="120"/>
    <line x1="60" y1="240" x2="340" y2="240" stroke-dasharray="6 6" stroke="#B8763D"/>
  </g>
  <g fill="#5C5C5C" font-family="ui-monospace, monospace" font-size="9" letter-spacing="1.5">
    <text x="60" y="60" fill="#B8763D" font-weight="600">QC PHOTO · PACK &amp; SHIP</text>
    <text x="60" y="265">Packed by SKU · ready for pickup</text>
  </g>
</svg>
